<svg xmlns="http://www.w3.org/2000/svg" viewBox="0 0 160 160" role="img" aria-labelledby="title desc">
  <title id="title">デザイン相談の挿絵</title>
  <desc id="desc">Tシャツのラフデザインとペンのシンプルなイラスト</desc>
  <rect x="10" y="10" width="140" height="140" rx="34" fill="#FFF7C7" stroke="#111" stroke-width="6"/>
  <path d="M54 44h52l12 18v58a8 8 0 0 1-8 8H50a8 8 0 0 1-8-8V56a12 12 0 0 1 12-12Z" fill="#fff" stroke="#111" stroke-width="5"/>
  <path d="M106 44v18h12" fill="none" stroke="#111" stroke-width="5" stroke-linecap="round" stroke-linejoin="round"/>
  <path d="M67 76c9-12 18-12 27 0" fill="none" stroke="#111" stroke-width="5" stroke-linecap="round"/>
  <path d="M70 96h28" stroke="#FFD21F" stroke-width="8" stroke-linecap="round"/>
  <path d="M33 120l31-31 15 15-31 31-20 5 5-20Z" fill="#FFD21F" stroke="#111" stroke-width="5" stroke-linejoin="round"/>
  <path d="M58 95l15 15" stroke="#111" stroke-width="5" stroke-linecap="round"/>
</svg>