<svg xmlns="http://www.w3.org/2000/svg" viewBox="0 0 420 560" role="img" aria-labelledby="title desc">
<title id="title">HADAOJI PRINT Mascot</title>
<desc id="desc">Hadaoji-kun mascot wearing a cap, goggles, gas mask and apron while holding a print squeegee.</desc>
<defs>
  <filter id="shadow" x="-20%" y="-20%" width="140%" height="140%"><feDropShadow dx="0" dy="16" stdDeviation="12" flood-color="#000" flood-opacity=".35"/></filter>
  <linearGradient id="yellow" x1="0" x2="1"><stop offset="0" stop-color="#ffd84d"/><stop offset="1" stop-color="#f0b900"/></linearGradient>
</defs>
<g filter="url(#shadow)">
  <ellipse cx="214" cy="520" rx="108" ry="18" fill="#000" opacity=".25"/>
  <path d="M130 246c-28 26-42 63-42 111 0 68 50 126 124 126s124-58 124-126c0-48-14-85-42-111-21 22-49 34-82 34s-61-12-82-34z" fill="#111" stroke="#fff" stroke-width="10"/>
  <path d="M164 286h96c28 0 48 22 48 50v116H116V336c0-28 20-50 48-50z" fill="#151515" stroke="#222" stroke-width="4"/>
  <path d="M148 310h128v150H148z" rx="16" fill="#202020" stroke="#555" stroke-width="3"/>
  <text x="212" y="365" text-anchor="middle" font-family="Arial Black, Impact, sans-serif" font-size="28" fill="#fff">HADAOJI</text>
  <text x="212" y="398" text-anchor="middle" font-family="Arial Black, Impact, sans-serif" font-size="31" fill="#fff">PRINT</text>
  <path d="M104 345c-34 14-58 42-68 82" fill="none" stroke="#111" stroke-width="28" stroke-linecap="round"/>
  <path d="M104 345c-34 14-58 42-68 82" fill="none" stroke="#fff" stroke-width="8" stroke-linecap="round" opacity=".9"/>
  <path d="M316 345c36 17 56 47 63 85" fill="none" stroke="#111" stroke-width="28" stroke-linecap="round"/>
  <path d="M316 345c36 17 56 47 63 85" fill="none" stroke="#f6c400" stroke-width="7" stroke-linecap="round"/>
  <path d="M92 438h80" stroke="#fff" stroke-width="42" stroke-linecap="round"/>
  <path d="M92 438h80" stroke="#111" stroke-width="30" stroke-linecap="round"/>
  <path d="M80 417h88c12 0 22 10 22 22v6H58v-6c0-12 10-22 22-22z" fill="#f8c400" stroke="#111" stroke-width="12"/>
  <path d="M92 450c0 16-12 28-28 28s-28-12-28-28" fill="#111"/>
  <path d="M260 456l42 22" stroke="#111" stroke-width="30" stroke-linecap="round"/>
  <path d="M260 456l42 22" stroke="#fff" stroke-width="8" stroke-linecap="round"/>
  <path d="M270 478h72c22 0 40 16 44 38H256c3-22 15-38 14-38z" fill="#111" stroke="#fff" stroke-width="8"/>
  <path d="M286 498h80" stroke="#f6c400" stroke-width="8" stroke-linecap="round"/>
  <path d="M164 456l-42 22" stroke="#111" stroke-width="30" stroke-linecap="round"/>
  <path d="M164 456l-42 22" stroke="#fff" stroke-width="8" stroke-linecap="round"/>
  <path d="M78 478h72c22 0 34 16 38 38H58c4-22 22-38 20-38z" fill="#111" stroke="#fff" stroke-width="8"/>
  <path d="M78 498h80" stroke="#f6c400" stroke-width="8" stroke-linecap="round"/>
  <path d="M108 145c0-65 47-110 105-110s105 45 105 110v58c0 56-47 101-105 101S108 259 108 203v-58z" fill="#f1d0b6" stroke="#111" stroke-width="12"/>
  <path d="M98 176h-20c-18 0-32 14-32 32s14 32 32 32h20z" fill="#d6d6d6" stroke="#111" stroke-width="10"/>
  <path d="M322 176h20c18 0 32 14 32 32s-14 32-32 32h-20z" fill="#d6d6d6" stroke="#111" stroke-width="10"/>
  <path d="M86 139c18-66 69-104 130-104 74 0 123 46 132 111-38-18-79-27-124-27-51 0-97 7-138 20z" fill="#111" stroke="#111" stroke-width="10"/>
  <path d="M93 124c20-73 76-104 135-104 71 0 123 44 126 117-76-36-177-35-261-13z" fill="#171717"/>
  <path d="M74 124c85-36 211-37 292 4 10 5 12 18 4 26-41-18-97-28-157-28-58 0-110 9-151 27-11-8-6-24 12-29z" fill="#050505" stroke="#111" stroke-width="8"/>
  <text x="220" y="79" text-anchor="middle" font-family="Arial Black, Impact, sans-serif" font-size="26" fill="#fff">HADAOJI</text>
  <text x="220" y="106" text-anchor="middle" font-family="Arial Black, Impact, sans-serif" font-size="28" fill="#fff">PRINT</text>
  <circle cx="168" cy="186" r="47" fill="#050505" stroke="#fff" stroke-width="14"/>
  <circle cx="252" cy="186" r="47" fill="#050505" stroke="#fff" stroke-width="14"/>
  <circle cx="168" cy="186" r="60" fill="none" stroke="#111" stroke-width="12"/>
  <circle cx="252" cy="186" r="60" fill="none" stroke="#111" stroke-width="12"/>
  <path d="M210 182c9-7 18-7 27 0" stroke="#111" stroke-width="12" stroke-linecap="round"/>
  <path d="M176 244c0-29 17-52 38-52s38 23 38 52c0 25-17 47-38 47s-38-22-38-47z" fill="#202020" stroke="#111" stroke-width="12"/>
  <ellipse cx="214" cy="245" rx="42" ry="24" fill="#2e2e2e" stroke="#050505" stroke-width="8"/>
  <ellipse cx="214" cy="245" rx="24" ry="12" fill="#0b0b0b"/>
  <path d="M179 278c22 13 47 13 70 0" stroke="#777" stroke-width="6" stroke-linecap="round"/>
  <path d="M302 294c7 23 7 57 0 92" stroke="#f6c400" stroke-width="9" stroke-linecap="round"/>
  <path d="M322 290c10 27 11 63 1 105" stroke="#f6c400" stroke-width="9" stroke-linecap="round"/>
</g>
<g transform="translate(44 310) rotate(-18)">
  <rect x="0" y="0" width="110" height="46" rx="10" fill="url(#yellow)" stroke="#111" stroke-width="10"/>
  <rect x="0" y="36" width="110" height="34" rx="7" fill="#f8f8f8" stroke="#111" stroke-width="8"/>
  <circle cx="56" cy="52" r="5" fill="#111"/>
  <path d="M28 80c-8 18 8 26 17 10 5-8-4-18-17-10z" fill="#111"/>
</g>
</svg>
