<svg xmlns="http://www.w3.org/2000/svg" viewBox="0 0 1200 760" role="img" aria-label="HADAOJI PRINT ファーストビュー画像">
  <defs>
    <linearGradient id="bg" x1="0" y1="0" x2="1" y2="1">
      <stop offset="0" stop-color="#050505"/>
      <stop offset=".55" stop-color="#141414"/>
      <stop offset="1" stop-color="#000"/>
    </linearGradient>
    <filter id="shadow" x="-20%" y="-20%" width="140%" height="140%">
      <feDropShadow dx="0" dy="18" stdDeviation="18" flood-color="#000" flood-opacity=".45"/>
    </filter>
  </defs>
  <rect width="1200" height="760" rx="34" fill="url(#bg)"/>
  <g opacity=".18">
    <circle cx="180" cy="120" r="60" fill="#ffd21f"/>
    <circle cx="1050" cy="610" r="90" fill="#ffd21f"/>
    <rect x="0" y="610" width="1200" height="150" fill="#ffd21f" opacity=".18"/>
  </g>
  <g transform="translate(58 74)">
    <text x="0" y="0" font-family="Arial Black, sans-serif" font-size="42" fill="#fff" font-weight="900">HADAOJI</text>
    <text x="0" y="48" font-family="Arial Black, sans-serif" font-size="42" fill="#fff" font-weight="900">PRINT</text>
    <text x="0" y="82" font-family="Arial, sans-serif" font-size="18" fill="#ffd21f" font-weight="800">WE PRINT YOUR WAY!</text>
    <circle cx="238" cy="16" r="22" fill="#ffd21f"/>
  </g>
  <g transform="translate(58 210)">
    <text x="0" y="0" font-family="Hiragino Sans, Yu Gothic, sans-serif" font-size="58" fill="#fff" font-weight="900">デザインがなくても</text>
    <text x="0" y="82" font-family="Hiragino Sans, Yu Gothic, sans-serif" font-size="88" fill="#ffd21f" font-weight="900">大丈夫。</text>
    <rect x="0" y="104" width="310" height="14" fill="#ffd21f" transform="rotate(-3)"/>
    <text x="0" y="178" font-family="Hiragino Sans, Yu Gothic, sans-serif" font-size="52" fill="#fff" font-weight="900">一緒に考えて、</text>
    <text x="0" y="248" font-family="Hiragino Sans, Yu Gothic, sans-serif" font-size="72" fill="#ffd21f" font-weight="900">カタチにします。</text>
    <text x="0" y="312" font-family="Hiragino Sans, Yu Gothic, sans-serif" font-size="22" fill="#fff" font-weight="700">手描きラフ・参考画像・イメージだけでもOK！</text>
    <g transform="translate(0 346)">
      <rect width="270" height="66" rx="33" fill="#06c755"/>
      <circle cx="38" cy="33" r="22" fill="#fff"/>
      <text x="29" y="39" font-family="Arial Black" font-size="13" fill="#06c755">LINE</text>
      <text x="76" y="42" font-family="Hiragino Sans, Yu Gothic, sans-serif" font-size="25" fill="#fff" font-weight="900">LINEで無料見積り</text>
    </g>
  </g>
  <g transform="translate(648 152)" filter="url(#shadow)">
    <rect x="124" y="292" width="165" height="240" rx="18" fill="#111" stroke="#fff" stroke-width="3"/>
    <path d="M124 330 L82 370 L124 398 Z" fill="#111" stroke="#fff" stroke-width="3"/>
    <path d="M289 330 L332 370 L289 398 Z" fill="#111" stroke="#fff" stroke-width="3"/>
    <text x="152" y="420" font-family="Arial Black" font-size="32" fill="#fff">HADAOJI</text>
    <text x="164" y="456" font-family="Arial Black" font-size="32" fill="#fff">PRINT</text>
    <rect x="122" y="80" width="170" height="70" rx="28" fill="#050505" stroke="#fff" stroke-width="3"/>
    <path d="M132 88 Q208 20 282 88" fill="#050505" stroke="#fff" stroke-width="3"/>
    <text x="158" y="104" font-family="Arial Black" font-size="22" fill="#fff">HADAOJI</text>
    <text x="172" y="130" font-family="Arial Black" font-size="22" fill="#fff">PRINT</text>
    <circle cx="158" cy="205" r="64" fill="#111" stroke="#fff" stroke-width="5"/>
    <circle cx="254" cy="205" r="64" fill="#111" stroke="#fff" stroke-width="5"/>
    <ellipse cx="158" cy="205" rx="32" ry="42" fill="#000" stroke="#fff" stroke-width="8"/>
    <ellipse cx="254" cy="205" rx="32" ry="42" fill="#000" stroke="#fff" stroke-width="8"/>
    <circle cx="206" cy="276" r="52" fill="#111" stroke="#fff" stroke-width="5"/>
    <circle cx="206" cy="276" r="24" fill="#000" stroke="#777" stroke-width="8"/>
    <path d="M112 304 Q60 340 34 430" stroke="#ffd21f" stroke-width="18" fill="none" stroke-linecap="round"/>
    <path d="M296 304 Q354 336 386 420" stroke="#ffd21f" stroke-width="18" fill="none" stroke-linecap="round"/>
    <g transform="translate(-10 358) rotate(-12)">
      <rect width="170" height="72" rx="12" fill="#ffd21f" stroke="#fff" stroke-width="4"/>
      <rect y="46" width="170" height="26" fill="#ddd"/>
      <circle cx="40" cy="58" r="6" fill="#111"/>
      <circle cx="130" cy="58" r="6" fill="#111"/>
    </g>
  </g>
  <g transform="translate(875 98)" filter="url(#shadow)">
    <path d="M65 0 h260 l45 65 -48 40 v380 h-250 v-380 l-48-40z" fill="#111" stroke="#222" stroke-width="4"/>
    <text x="92" y="188" font-family="Arial Black" font-size="42" fill="#ffd21f">HADAOJI</text>
    <text x="112" y="238" font-family="Arial Black" font-size="42" fill="#ffd21f">PRINT</text>
  </g>
  <g transform="translate(835 358) rotate(10)" filter="url(#shadow)">
    <path d="M65 0 h250 l42 60 -45 38 v350 h-235 v-350 l-45-38z" fill="#fff"/>
    <text x="92" y="174" font-family="Arial Black" font-size="42" fill="#111">HADAOJI</text>
    <text x="112" y="224" font-family="Arial Black" font-size="42" fill="#111">PRINT</text>
    <circle cx="282" cy="222" r="34" fill="#111"/>
  </g>
  <g transform="translate(80 660)">
    <g fill="#fff" font-family="Hiragino Sans, Yu Gothic, sans-serif" font-size="20" font-weight="800">
      <text x="0" y="0">✓ 1枚からOK</text>
      <text x="210" y="0">✓ デザイン相談無料</text>
      <text x="470" y="0">✓ シルクスクリーン印刷</text>
      <text x="760" y="0">✓ 全国対応</text>
    </g>
  </g>
</svg>